<?xml version="1.0" encoding="UTF-8"?>
<svg id="Layer_2" data-name="Layer 2" xmlns="http://www.w3.org/2000/svg" viewBox="0 0 481.03 116.8">
  <defs>
    <style>
      .cls-1 {
        fill: #f96a00;
      }
    </style>
  </defs>
  <g id="Layer_1-2" data-name="Layer 1">
    <g>
      <path d="M0,65.7v-3.97h14.98v5.12c0,5.3,1.84,9.05,5.51,11.27,3.67,2.22,8.49,3.33,14.47,3.33,3.24,0,6.02-.26,8.32-.77,2.31-.51,4.2-1.3,5.7-2.37,1.49-1.07,2.58-2.43,3.27-4.1.68-1.67,1.02-3.65,1.02-5.96,0-1.79-.21-3.37-.64-4.74-.43-1.37-1.13-2.56-2.11-3.59-.98-1.03-2.2-1.9-3.65-2.63-1.45-.72-3.2-1.26-5.25-1.6l-19.47-4.23c-3.67-.77-6.83-1.9-9.48-3.39-2.65-1.49-4.82-3.27-6.53-5.32-1.71-2.05-2.97-4.35-3.78-6.92-.81-2.56-1.22-5.25-1.22-8.07,0-3.5.68-6.81,2.05-9.93,1.36-3.12,3.39-5.83,6.08-8.13,2.69-2.31,6.08-4.12,10.18-5.44,4.1-1.32,8.84-1.99,14.22-1.99s10.39.64,14.54,1.92c4.14,1.28,7.6,3.03,10.37,5.25,2.77,2.22,4.84,4.87,6.21,7.94,1.36,3.07,2.05,6.36,2.05,9.86v7.04h-14.98v-3.46c0-2.9-.47-5.32-1.41-7.24-.94-1.92-2.24-3.44-3.91-4.55-1.67-1.11-3.61-1.9-5.83-2.37-2.22-.47-4.65-.7-7.3-.7-2.22,0-4.35.19-6.4.58-2.05.38-3.84,1.02-5.38,1.92s-2.75,2.09-3.65,3.59c-.9,1.5-1.34,3.35-1.34,5.57,0,1.28.13,2.52.38,3.71.26,1.2.81,2.26,1.66,3.2.85.94,2.05,1.79,3.59,2.56s3.54,1.41,6.02,1.92l18.44,3.71c3.59.68,6.77,1.71,9.54,3.07,2.77,1.37,5.08,3.07,6.92,5.12,1.83,2.05,3.24,4.44,4.23,7.17.98,2.73,1.47,5.85,1.47,9.35,0,4.18-.73,8-2.18,11.46-1.45,3.46-3.63,6.43-6.53,8.9-2.9,2.48-6.51,4.38-10.82,5.7-4.31,1.32-9.29,1.99-14.92,1.99-6.49,0-11.95-.81-16.39-2.43-4.44-1.62-7.98-3.69-10.63-6.21-2.65-2.52-4.55-5.32-5.7-8.39-1.15-3.07-1.73-6.06-1.73-8.96v-3.84Z"/>
      <path d="M92.59,29.71l.77,10.63h1.92c2.48-4.44,5.68-7.62,9.61-9.54,3.93-1.92,8.15-2.88,12.68-2.88,3.84,0,7.49.68,10.95,2.05,3.46,1.37,6.47,3.44,9.03,6.21,2.56,2.78,4.61,6.28,6.15,10.5s2.31,9.2,2.31,14.92-.79,10.99-2.37,15.3c-1.58,4.31-3.71,7.86-6.4,10.63-2.69,2.78-5.81,4.8-9.35,6.08-3.54,1.28-7.32,1.92-11.33,1.92s-8.07-.92-11.91-2.75c-3.84-1.83-6.96-4.93-9.35-9.29h-2.18l.64,8.97v24.33h-14.6V29.71h13.45ZM130.12,52.12c-.94-2.73-2.22-5-3.84-6.79-1.62-1.79-3.59-3.09-5.89-3.91-2.31-.81-4.78-1.22-7.43-1.22s-5.02.38-7.36,1.15c-2.35.77-4.4,2.01-6.15,3.71-1.75,1.71-3.14,3.93-4.16,6.66-1.02,2.73-1.54,6.11-1.54,10.12s.51,7.24,1.54,9.93,2.41,4.89,4.16,6.6c1.75,1.71,3.8,2.95,6.15,3.71,2.35.77,4.8,1.15,7.36,1.15s5.12-.4,7.43-1.22c2.31-.81,4.27-2.09,5.89-3.84,1.62-1.75,2.9-3.97,3.84-6.66.94-2.69,1.41-5.91,1.41-9.67s-.47-7-1.41-9.73Z"/>
      <path d="M165.85,94.52c-2.48-.68-4.63-1.77-6.47-3.27-1.84-1.49-3.29-3.37-4.35-5.64-1.07-2.26-1.6-4.93-1.6-8,0-2.39.49-4.93,1.47-7.62.98-2.69,3.05-5.19,6.21-7.49,3.16-2.31,7.68-4.25,13.58-5.83,5.89-1.58,13.7-2.37,23.44-2.37v-1.92c0-1.62-.28-3.16-.83-4.61-.56-1.45-1.41-2.77-2.56-3.97-1.15-1.19-2.69-2.13-4.61-2.82-1.92-.68-4.25-1.02-6.98-1.02-2.56,0-4.78.32-6.66.96-1.88.64-3.46,1.52-4.74,2.62-1.28,1.11-2.24,2.41-2.88,3.91-.64,1.5-.96,3.14-.96,4.93h-14.09c0-4.27.81-7.94,2.43-11.01,1.62-3.07,3.78-5.61,6.47-7.62,2.69-2,5.76-3.48,9.22-4.42,3.46-.94,7.02-1.41,10.69-1.41,5.46,0,10.1.66,13.9,1.99,3.8,1.33,6.87,3.16,9.22,5.51,2.35,2.35,4.05,5.1,5.12,8.26,1.07,3.16,1.6,6.58,1.6,10.25v16.78c0,3.16.06,5.89.19,8.2.13,2.31.32,4.35.58,6.15.26,1.79.55,3.37.9,4.74.34,1.37.68,2.69,1.02,3.97h-14.47c-.68-1.62-1.17-3.48-1.47-5.57-.3-2.09-.49-4.03-.58-5.83h-2.05c-1.88,3.76-4.8,6.9-8.77,9.41s-8.73,3.78-14.28,3.78c-2.65,0-5.21-.34-7.68-1.02ZM184.87,82.35c2.6-1.02,4.87-2.37,6.79-4.03,1.92-1.67,3.48-3.52,4.67-5.57,1.19-2.05,1.79-4.1,1.79-6.15v-2.82c-5.98,0-10.95.38-14.92,1.15s-7.11,1.73-9.41,2.88c-2.31,1.15-3.93,2.48-4.87,3.97-.94,1.49-1.41,3.01-1.41,4.55,0,2.56.85,4.46,2.56,5.7,1.71,1.24,3.88,1.86,6.53,1.86,2.9,0,5.66-.51,8.26-1.54Z"/>
      <path d="M233.98,80.56v-36.76h-11.53v-14.09h21.77l.9,10.89h2.31c.6-2.22,1.49-4.12,2.69-5.7,1.19-1.58,2.52-2.82,3.97-3.71,1.45-.9,2.99-1.56,4.61-1.98,1.62-.43,3.2-.64,4.74-.64,5.12,0,9.11,1.43,11.97,4.29,2.86,2.86,4.29,7.36,4.29,13.51,0,.94-.02,1.9-.06,2.88-.04.98-.15,2.03-.32,3.14h-13.45c.08-.6.13-1.17.13-1.73v-1.47c-.17-2.99-.9-5.04-2.18-6.15-1.28-1.11-2.99-1.66-5.12-1.66-1.45,0-2.84.34-4.16,1.02-1.32.68-2.46,1.73-3.39,3.14-.94,1.41-1.67,3.25-2.18,5.51-.51,2.26-.77,4.93-.77,8v21.52h29.46v13.19h-55.2v-13.19h11.53Z"/>
      <path d="M316.27,68.71c-1.41-.98-3.44-1.47-6.08-1.47h-6.66v26.51h-14.6V4.1h14.6v50.72h6.66c2.56,0,4.65-.47,6.28-1.41,1.62-.94,2.9-2.9,3.84-5.89l6.28-17.8h15.11l-6.92,18.44c-.77,2.05-1.54,3.76-2.31,5.12-.77,1.37-1.6,2.46-2.5,3.27-.9.81-1.86,1.43-2.88,1.86-1.02.43-2.22.73-3.59.9v2.43c1.45.17,2.73.51,3.84,1.02,1.11.51,2.11,1.2,3.01,2.05.9.85,1.79,1.94,2.69,3.27.9,1.33,1.77,2.93,2.63,4.8l10.12,20.88h-16.52l-9.09-19.34c-1.2-2.82-2.5-4.72-3.91-5.7Z"/>
      <path d="M368.97,93.75l-21.77-64.04h15.5l15.88,49.56h2.31l16.01-49.56h15.11l-29.33,87.09h-15.11l8.58-23.05h-7.17Z"/>
      <path class="cls-1" d="M443.64,35.35l-.9-1.54-19.85,3.46v-15.62l19.85,3.46.9-1.54-13.19-15.75,13.58-7.81,7.04,19.59h1.79l7.04-19.59,13.58,7.81-13.19,15.75.9,1.54,19.85-3.46v15.62l-19.85-3.33-.9,1.54,13.19,15.62-13.58,7.81-7.04-19.59h-1.79l-7.04,19.59-13.58-7.81,13.19-15.75Z"/>
    </g>
  </g>
</svg>